<svg width="736" height="910" viewBox="0 0 736 910" fill="none" xmlns="http://www.w3.org/2000/svg">
<path d="M74.8833 863.595H95.8833M84.3833 889.095L104.383 886.095" stroke="black" stroke-width="10"/>
<path d="M57.8833 31.5952L82.3833 25.5952" stroke="black" stroke-width="10"/>
<path d="M50.3832 50.0952C50.3832 50.0952 48.3832 60.0952 50.3832 68.5952C52.3832 77.0952 55.3832 81.5952 64.3832 80.5952C73.3832 79.5952 74.3833 68.5952 73.3832 57.5952C72.3832 46.5952 70.8832 38.5952 61.8832 33.5952C52.8832 28.5952 45.3832 33.5952 41.3832 36.0952C37.3832 38.5952 32.3832 49.5952 32.8832 65.0952C33.3832 80.5952 37.8832 85.5952 48.3832 92.0952C58.8832 98.5952 66.3832 99.0952 77.8832 94.0952C89.3833 89.0952 89.8833 80.5952 91.8832 61.5952C93.8832 42.5952 88.3833 33.5952 84.8832 26.0952C81.3832 18.5952 73.3832 6.09517 58.8832 5.09517C44.3833 4.09517 36.3832 11.0952 27.3832 19.0952C18.3832 27.0952 5.88323 50.0952 5.88323 57.5952C5.88323 65.0952 3.88319 69.5952 5.88323 104.595C7.88327 139.595 42.3832 380.095 42.3832 447.095C42.3833 514.095 18.8833 771.095 20.3833 816.095C21.8833 861.095 31.3833 871.595 33.3833 876.595C35.3833 881.595 54.3833 902.595 71.8833 902.595C89.3833 902.595 100.247 893.095 104.383 886.595C108.52 880.095 108.883 855.095 108.883 847.095C108.883 839.095 104.883 824.595 97.8832 816.095C90.8832 807.595 80.8833 801.595 71.8833 803.095C62.8833 804.595 52.3833 827.595 51.8833 841.095C51.3833 854.595 48.8833 867.595 58.3833 878.595C67.8833 889.595 68.8833 889.595 77.3833 890.095C85.8833 890.595 92.8833 881.595 95.3832 871.595C97.8832 861.595 97.8832 852.095 95.3832 841.095C92.8832 830.095 87.8833 825.095 78.8833 827.595C69.8833 830.095 69.8833 842.595 71.8833 852.095C73.8833 861.595 78.8833 865.595 78.8833 865.595" stroke="black" stroke-width="10"/>
<path d="M61.8833 5.09516C61.8833 5.09516 123.659 4.66659 162.883 9.09516C255.883 19.5951 287.119 18.4617 366.883 19.5952C451.646 20.7996 499.213 18.2282 583.883 14.0952C617.485 12.4549 648.883 9.09518 669.883 9.09516C688.516 9.09515 701.87 20.7966 707.383 38.5952C710.171 47.5952 709.055 65.3529 701.383 79.0952C692.814 94.4442 680.383 107.595 645.883 107.595C601.876 107.595 596.84 103.21 552.883 101.095C552.883 101.095 324.939 92.7326 178.883 95.0952C133.964 95.8218 63.8833 98.0952 63.8833 98.0952" stroke="black" stroke-width="10"/>
<path d="M76.8833 802.095C76.8833 802.095 208.932 816.641 293.883 821.095C448.719 829.214 632.883 807.437 690.883 816.595C719.383 821.095 729.086 836.473 730.383 859.095C730.985 869.595 719.383 894.095 699.383 902.595C681.746 910.091 623.383 894.095 367.883 894.095C254.192 894.095 76.8833 902.595 76.8833 902.595" stroke="black" stroke-width="10"/>
<path d="M680.382 104.095C680.382 104.095 670.88 111.57 673.883 182.095C676.887 252.62 689.221 317.771 690.883 405.095C692.829 507.315 676.155 587.673 678.382 666.595C680.04 725.31 694.882 816.095 694.882 816.095" stroke="black" stroke-width="10"/>
<path d="M47.3833 53.5952L69.3833 51.0952" stroke="black" stroke-width="10"/>
<path d="M64.8833 80.5952L87.8833 79.0952" stroke="black" stroke-width="10"/>
<path d="M83.8833 826.595H102.383" stroke="black" stroke-width="10"/>
</svg>
